<?xml version="1.0" standalone="no"?>
<!DOCTYPE svg PUBLIC "-//W3C//DTD SVG 20010904//EN"
 "http://www.w3.org/TR/2001/REC-SVG-20010904/DTD/svg10.dtd">
<svg version="1.0" xmlns="http://www.w3.org/2000/svg"
 width="700.000000pt" height="700.000000pt" viewBox="0 0 700.000000 700.000000"
 preserveAspectRatio="xMidYMid meet">
<metadata>
Created by potrace 1.14, written by Peter Selinger 2001-2017
</metadata>
<g transform="translate(0.000000,700.000000) scale(0.100000,-0.100000)"
fill="#000000" stroke="none">
<path d="M3378 6415 c-2 -1 -48 -5 -103 -9 -362 -23 -740 -127 -1075 -295
-125 -63 -138 -71 -264 -148 -264 -164 -575 -449 -752 -688 -16 -22 -32 -41
-36 -43 -5 -2 -8 -10 -8 -17 0 -7 -4 -15 -8 -17 -29 -11 -203 -309 -284 -483
-112 -243 -206 -564 -234 -798 -4 -29 -8 -54 -9 -57 -8 -13 -19 -226 -19 -360
0 -188 12 -351 34 -465 5 -27 12 -66 15 -85 9 -60 55 -241 82 -325 148 -461
378 -839 718 -1181 181 -183 354 -319 569 -448 182 -110 447 -227 646 -286 41
-12 86 -26 100 -31 31 -10 257 -55 325 -64 28 -4 61 -9 75 -11 140 -23 632
-22 702 1 7 2 36 6 63 9 272 30 648 150 934 299 179 94 426 261 556 376 87 78
285 280 347 357 72 87 208 277 239 334 11 19 29 51 41 70 45 75 158 311 173
360 4 14 11 30 15 35 10 14 84 245 109 340 18 70 50 241 65 345 26 179 26 536
1 730 -11 83 -46 275 -55 305 -5 17 -12 41 -14 55 -7 34 -36 141 -43 160 -3 8
-23 63 -43 121 -96 271 -275 589 -467 829 -64 80 -295 319 -373 386 -118 100
-326 248 -445 314 -85 48 -293 149 -360 174 -38 15 -79 31 -90 36 -22 10 -171
58 -201 65 -11 2 -44 11 -74 20 -61 17 -290 61 -360 69 -126 14 -188 18 -332
21 -87 1 -159 1 -160 0z"/>
</g>
</svg>
